Coordinates
version=1
nRows=9
nColumns=63
inDegrees=yes

Units are S.I. units (second, meters, Newtons, ...)
If the header above contains a line with 'inDegrees', this indicates whether rotational values are in degrees (yes) or radians (no).

endheader
time	pelvis_tilt	pelvis_list	pelvis_rotation	pelvis_tx	pelvis_ty	pelvis_tz	hip_flexion_r	hip_adduction_r	hip_rotation_r	knee_angle_r	knee_angle_r_beta	ankle_angle_r	subtalar_angle_r	mtp_angle_r	hip_flexion_l	hip_adduction_l	hip_rotation_l	knee_angle_l	knee_angle_l_beta	ankle_angle_l	subtalar_angle_l	mtp_angle_l	L5_S1_Flex_Ext	L5_S1_Lat_Bending	L5_S1_axial_rotation	L4_L5_Flex_Ext	L4_L5_Lat_Bending	L4_L5_axial_rotation	L3_L4_Flex_Ext	L3_L4_Lat_Bending	L3_L4_axial_rotation	L2_L3_Flex_Ext	L2_L3_Lat_Bending	L2_L3_axial_rotation	L1_L2_Flex_Ext	L1_L2_Lat_Bending	L1_L2_axial_rotation	L1_T12_Flex_Ext	L1_T12_Lat_Bending	L1_T12_axial_rotation	Abs_r3	Abs_r2	Abs_r1	Abs_t1	Abs_t2	neck_flexion	neck_bending	neck_rotation	arm_flex_r	arm_add_r	arm_rot_r	elbow_flex_r	pro_sup_r	wrist_flex_r	wrist_dev_r	arm_flex_l	arm_add_l	arm_rot_l	elbow_flex_l	pro_sup_l	wrist_flex_l	wrist_dev_l
      1.85000000	     -7.79657154	      0.39289669	     95.41502198	      0.16241175	      0.96060685	      0.63886764	     -6.54175558	     -6.17822084	    -22.20605710	     13.66038419	      0.23841868	     33.13416320	     14.15402943	      0.00000000	     -8.71365766	      4.66920891	     14.21467707	      3.97861203	      0.06943988	     22.83143206	     -7.85903481	      0.00000000	     -0.44705421	      0.06103617	      0.71459391	     -0.83022438	      0.08117811	      0.75925603	     -0.73446537	      0.14840336	      0.75925603	     -0.51093826	      0.14840336	      0.62526967	     -0.41513454	      0.12446497	      0.58060755	     -0.25544678	      0.09454503	      0.53594543	     -3.19326355	      0.69045342	      3.97435696	      0.00000000	      0.00000000	      5.00482832	     -3.23713035	      6.11797037	     -2.69090770	    -16.49070390	     33.70045754	     27.76863300	     86.32700430	    -15.98900493	     -0.77819933	     47.80026452	     -6.35003516	      1.26113127	    136.90310993	     83.51544937	    -14.98527722	    -17.55374352
      1.87500000	     -7.51201097	      0.63366034	     95.80520055	      0.16177986	      0.96094699	      0.63873365	     -6.94709396	     -5.80218953	    -22.90489568	     13.45688630	      0.23486697	     33.01266496	     14.54653429	      0.00000000	     -8.96613987	      4.21117375	     13.35077827	      3.82224542	      0.06671077	     23.55754345	     -5.50029682	      0.00000000	     -0.46236906	      0.10048033	      0.64920592	     -0.85866559	      0.13363884	      0.68978129	     -0.75962613	      0.24430787	      0.68978129	     -0.52844160	      0.24430787	      0.56805518	     -0.42935591	      0.20489949	      0.52747981	     -0.26419768	      0.15564403	      0.48690444	     -3.30265598	      1.13665358	      3.61068854	      0.00000000	      0.00000000	      5.34738196	     -2.69780074	      6.32088735	     -2.76156004	    -16.68987109	     33.88882941	     27.50437958	     85.86722182	    -15.60189481	     -0.58826619	     47.86205150	     -5.74742187	      1.41650555	    135.96024448	     82.64322844	    -15.96312088	    -18.07507409
      1.90000000	     -7.34440627	      0.71268187	     95.69381426	      0.16168150	      0.96096289	      0.63848284	     -6.99145364	     -5.61454910	    -22.48708137	     13.44744213	      0.23470214	     32.93146416	     14.17340327	      0.00000000	     -9.11025263	      4.07736099	     14.47685231	      3.64674902	      0.06364778	     23.22629931	     -7.16078570	      0.00000000	     -0.45843061	      0.12694702	      0.67571456	     -0.85135149	      0.16883954	      0.71794672	     -0.75315565	      0.30865899	      0.71794672	     -0.52394035	      0.30865899	      0.59125024	     -0.42569867	      0.25887037	      0.54901808	     -0.26194725	      0.19664094	      0.50678592	     -3.27452402	      1.43605012	      3.75812168	      0.00000000	      0.00000000	      5.33083591	     -2.81914104	      6.24079222	     -3.12579442	    -16.82361789	     33.40533408	     27.40046034	     85.58794782	    -15.53427769	     -1.08835874	     47.77621844	     -5.37890625	      1.38193799	    135.91441081	     82.23056925	    -16.01452780	    -17.82997801
      1.92500000	     -7.31629329	      0.77618507	     95.68563272	      0.16171703	      0.96100524	      0.63864284	     -7.01593535	     -5.59483832	    -22.45213068	     13.49516609	      0.23553508	     32.94957235	     14.18254679	      0.00000000	     -9.13460031	      4.03821650	     14.53987538	      3.64387684	      0.06359765	     23.23711742	     -7.17234204	      0.00000000	     -0.47752959	      0.12896184	      0.66618712	     -0.88682020	      0.17151925	      0.70782382	     -0.78453336	      0.31355783	      0.70782382	     -0.54576857	      0.31355783	      0.58291373	     -0.44343398	      0.26297899	      0.54127704	     -0.27286041	      0.19976189	      0.49964034	     -3.41094611	      1.45884216	      3.70513291	      0.00000000	      0.00000000	      5.13936374	     -2.88594206	      6.26773219	     -3.26746678	    -16.89882069	     33.28846797	     27.34090859	     85.48335374	    -15.55324097	     -1.18621804	     47.75135463	     -5.40575789	      1.73023850	    136.74599501	     82.39700630	    -15.81191369	    -17.88936159
      1.95000000	     -7.02684500	      0.69069020	     95.80727636	      0.16135797	      0.96098564	      0.63840313	     -6.93966936	     -5.26946410	    -22.44595848	     13.42481808	      0.23430728	     32.74684582	     14.04708453	      0.00000000	     -9.08241154	      3.72409114	     15.14821038	      3.43272996	      0.05991244	     23.16837169	     -7.65369554	      0.00000000	     -0.46977145	      0.17355285	      0.63371070	     -0.87241257	      0.23082529	      0.67331762	     -0.77178752	      0.42197640	      0.67331762	     -0.53690180	      0.42197640	      0.55449686	     -0.43622977	      0.35390897	      0.51488995	     -0.26842741	      0.26883336	      0.47528303	     -3.35553052	      1.96326453	      3.52450882	      0.00000000	      0.00000000	      4.53132935	     -3.69756161	      6.75080410	     -4.00821147	    -16.89514968	     31.05809886	     27.41358249	     83.89255369	    -14.74753752	     -2.73708957	     47.14377933	     -5.54979726	      1.38182818	    138.73610753	     85.20684672	    -14.71407815	    -15.59137114
      1.97500000	     -6.99377952	      0.61488403	     95.73086225	      0.16189277	      0.96077962	      0.63852190	     -6.76432724	     -5.24152287	    -22.22483955	     13.55560841	      0.23659000	     32.83949067	     13.95405192	      0.00000000	     -8.95832004	      3.70203607	     15.64832066	      3.43638560	      0.05997624	     23.11427805	     -8.40898182	      0.00000000	     -0.48699043	      0.16755568	      0.62866756	     -0.90438993	      0.22284906	      0.66795929	     -0.80007658	      0.40739489	      0.66795929	     -0.55658136	      0.40739489	      0.55008412	     -0.45221931	      0.34167955	      0.51079240	     -0.27826633	      0.25954375	      0.47150067	     -3.47852394	      1.89542340	      3.49646039	      0.00000000	      0.00000000	      4.05804852	     -3.97561407	      6.99945541	     -4.40714822	    -16.77860112	     29.42353627	     27.67014216	     83.14556247	    -13.70343911	     -2.94420057	     46.82728223	     -5.94568599	      1.14014775	    141.24381978	     87.68665039	    -12.68780651	    -11.98538554
      2.00000000	     -6.96319049	      0.49482079	     95.65079216	      0.16258849	      0.96060032	      0.63888645	     -6.56957644	     -5.17826310	    -21.95108274	     13.55085771	      0.23650708	     32.81555034	     13.68914826	      0.00000000	     -8.81303170	      3.68251756	     16.31673963	      3.40305005	      0.05939443	     22.94196996	     -9.47661509	      0.00000000	     -0.50575678	      0.16276903	      0.61563086	     -0.93924092	      0.21648281	      0.65410779	     -0.83090782	      0.39575662	      0.65410779	     -0.57802943	      0.39575662	      0.53867700	     -0.46964575	      0.33191861	      0.50020007	     -0.28898943	      0.25212923	      0.46172315	     -3.61257013	      1.84127582	      3.42395416	      0.00000000	      0.00000000	      3.65074358	     -4.16399376	      7.47797265	     -4.65199768	    -16.66522375	     28.03931152	     27.89010788	     83.26090847	    -13.23968024	     -3.02584653	     46.61177425	     -6.00210210	     -0.61241383	    143.97897589	     88.20890845	     -5.23946606	     -7.22346986
      2.02500000	     -6.89582618	      0.34013412	     95.54212638	      0.16333904	      0.96042400	      0.63942157	     -6.29588628	     -5.09717809	    -21.64562203	     13.59972371	      0.23735996	     32.79005700	     13.46208616	      0.00000000	     -8.57642300	      3.62390514	     16.05743948	      3.51007221	      0.06126232	     23.04217630	     -9.42856095	      0.00000000	     -0.51761367	      0.15871509	      0.62975371	     -0.96126034	      0.21109107	      0.66911331	     -0.85038749	      0.38589988	      0.66911331	     -0.59158066	      0.38589988	      0.55103449	     -0.48065605	      0.32365182	      0.51167489	     -0.29576445	      0.24584968	      0.47231528	     -3.69726265	      1.79541688	      3.50250119	      0.00000000	      0.00000000	      3.33429438	     -4.21324544	      7.77617657	     -4.86857535	    -16.58902674	     26.87356451	     28.05157233	     82.50622281	    -12.62320065	     -3.07895548	     46.75775999	     -6.00354326	     -1.93045597	    146.44759115	     88.45471704	      0.91635403	     -3.34620795
      2.05000000	     -6.77265770	      0.24729525	     95.35844440	      0.16409689	      0.96022306	      0.64008902	     -6.04866603	     -4.98205290	    -21.33429201	     13.68274887	      0.23880902	     32.73787807	     13.30158362	      0.00000000	     -8.39610910	      3.51753261	     15.65497210	      3.63772755	      0.06349032	     23.22409193	     -9.32978357	      0.00000000	     -0.53028622	      0.15719064	      0.68743655	     -0.98479455	      0.20906355	      0.73040133	     -0.87120724	      0.38219332	      0.73040133	     -0.60606413	      0.38219332	      0.60150698	     -0.49242379	      0.32054315	      0.55854219	     -0.30300555	      0.24348830	      0.51557741	     -3.78778148	      1.77817196	      3.82331585	      0.00000000	      0.00000000	      3.14244080	     -4.02894988	      7.70945371	     -5.14565581	    -16.56501424	     25.57959695	     28.30337812	     81.99699535	    -11.96838423	     -2.92093543	     47.06885515	     -5.91384230	     -2.50993399	    148.24794151	     88.43798705	      5.48146386	     -1.36959502
